<?xml version="1.0" encoding="utf-8"?>
<!-- Generator: Adobe Illustrator 27.4.1, SVG Export Plug-In . SVG Version: 6.00 Build 0)  -->
<svg version="1.1" id="Layer_1" xmlns="http://www.w3.org/2000/svg" xmlns:xlink="http://www.w3.org/1999/xlink" x="0px" y="0px"
	 viewBox="0 0 306 144" style="enable-background:new 0 0 306 144;" xml:space="preserve">
<style type="text/css">
	.st0{fill:none;stroke:#4D4D4F;stroke-width:1.8;stroke-miterlimit:10;}
	.st1{fill:#282829;}
	.st2{fill:none;stroke:#414042;stroke-width:1.6729;stroke-miterlimit:10;}
	.st3{fill:#414042;}
	.st4{fill:#58595B;}
	.st5{fill:#E6E6E6;}
	.st6{fill:#595959;}
	.st7{fill:#808080;}
	.st8{fill:#FFFFFF;stroke:#414042;stroke-width:2;stroke-miterlimit:10;}
</style>
<g id="Layer_2_00000169558471401566083550000002947924162786849419_">
</g>
<g id="Layer_1_00000111173190844950491980000012176808745561312943_">
	<g>
		<rect x="40.3" y="32" class="st0" width="24.4" height="24.4"/>
		<rect x="11.3" y="32" class="st0" width="24.4" height="24.4"/>
		<rect x="69.2" y="32" class="st0" width="24.3" height="24.4"/>
		<rect x="127.1" y="32" class="st0" width="24.4" height="24.4"/>
		<rect x="98.2" y="32" class="st0" width="24.3" height="24.4"/>
		<rect x="156" y="32" class="st0" width="24.4" height="24.4"/>
		<rect x="213.9" y="32" class="st0" width="24.4" height="24.4"/>
		<rect x="185" y="32" class="st0" width="24.4" height="24.4"/>
		<rect x="242.8" y="32" class="st0" width="24.3" height="24.4"/>
		<rect x="271.8" y="32" class="st0" width="24.4" height="24.4"/>
		<g>
			<g>
				<g>
					<path class="st1" d="M205,53.4c-0.1,0-0.3,0-0.4-0.2c-6.4-4.8-12.4-10-18-15.7c-0.4-0.4-0.3-1.2-0.1-1.7
						c0.2-0.6,0.6-0.9,0.9-0.9c0.1,0,0.2,0.1,0.4,0.2c5.6,5.7,11.7,11,18.1,15.9c0.5,0.4,0.3,1.1,0.2,1.3
						C205.9,52.9,205.4,53.4,205,53.4L205,53.4z"/>
				</g>
				<g>
					<path class="st1" d="M189.7,55.5c-0.3,0-0.6-0.2-0.8-0.5c-0.2-0.4-0.1-0.8,0.2-1.2c1.3-1.7,2.7-3.4,4.2-5.2
						c3.9-4.7,8-9.6,10.6-15.1c0.4-0.8,0.9-0.8,1.1-0.8c0.3,0,0.5,0.1,0.7,0.3c0.2,0.2,0.1,0.6-0.1,1c-2.7,5.7-6.9,10.9-11,15.9
						c-1.4,1.7-2.8,3.4-4.1,5.1C190.3,55.3,190,55.5,189.7,55.5L189.7,55.5z"/>
				</g>
			</g>
		</g>
		<g>
			<g>
				<g>
					<path class="st1" d="M90.2,53.3c-0.1,0-0.3,0-0.4-0.2c-6.4-4.8-12.4-10-18-15.7c-0.4-0.4-0.3-1.2-0.1-1.7
						c0.2-0.6,0.7-0.9,0.9-0.9c0.1,0,0.2,0.1,0.3,0.2c5.6,5.7,11.7,11,18.1,15.9c0.5,0.4,0.3,1.1,0.2,1.3
						C91.1,52.8,90.6,53.3,90.2,53.3L90.2,53.3z"/>
				</g>
				<g>
					<path class="st1" d="M81.8,57.5c-0.2,0-0.4-0.1-0.6-0.2c-0.2-0.2-0.3-0.5-0.3-0.9c0.2-7.5,0.1-15.2-0.3-23c0-0.5,0.3-1,0.4-1.2
						c0.3-0.3,0.7-0.5,1-0.5c0.1,0,0.5,0,0.5,0.8c0.5,7.8,0.6,15.8,0.3,23.9C82.8,57.2,82.3,57.5,81.8,57.5L81.8,57.5z"/>
				</g>
				<g>
					<path class="st1" d="M74.9,55.3c-0.3,0-0.6-0.2-0.8-0.5c-0.2-0.4-0.1-0.8,0.2-1.2c1.3-1.7,2.7-3.4,4.2-5.2
						c3.9-4.7,8-9.6,10.6-15.1c0.4-0.8,0.9-0.8,1.1-0.8c0.3,0,0.5,0.1,0.7,0.3c0.2,0.2,0.1,0.6-0.1,1c-2.7,5.7-6.9,10.9-11,15.9
						c-1.4,1.7-2.8,3.4-4.1,5.1C75.5,55.1,75.2,55.3,74.9,55.3L74.9,55.3z"/>
				</g>
				<g>
					<path class="st1" d="M69.9,48.6c-0.1,0-0.4,0-0.4-0.6c-0.1-0.8,0.5-1.9,1.2-2c8-1,16.1-2,24.1-2.9c0,0,0.1,0,0.1,0
						c0.1,0,0.4,0,0.4,0.6c0.1,0.8-0.5,1.9-1.2,2c-8,0.9-16.1,1.9-24.1,2.9C69.9,48.6,69.9,48.6,69.9,48.6z"/>
				</g>
			</g>
		</g>
		<g>
			<g>
				<g>
					<path class="st1" d="M31.4,52.8c-0.1,0-0.3,0-0.4-0.2c-6.4-4.8-12.4-10-18-15.7c-0.4-0.4-0.3-1.2-0.1-1.7
						c0.2-0.6,0.6-0.9,0.9-0.9c0.1,0,0.2,0.1,0.4,0.2c5.6,5.7,11.7,11.1,18.1,15.9c0.5,0.4,0.3,1.1,0.2,1.3
						C32.3,52.3,31.8,52.8,31.4,52.8L31.4,52.8z"/>
				</g>
				<g>
					<path class="st1" d="M23,57.1c-0.2,0-0.4-0.1-0.6-0.2c-0.2-0.2-0.3-0.5-0.3-0.9c0.2-7.5,0.1-15.2-0.3-23c0-0.5,0.3-1,0.4-1.1
						c0.3-0.3,0.7-0.5,1-0.5c0.1,0,0.5,0,0.5,0.8c0.5,7.8,0.6,15.8,0.3,23.9C24,56.7,23.4,57.1,23,57.1L23,57.1z"/>
				</g>
				<g>
					<path class="st1" d="M16,54.8c-0.3,0-0.6-0.2-0.8-0.5c-0.2-0.4-0.1-0.8,0.2-1.2c1.3-1.7,2.7-3.4,4.2-5.2c4-4.7,8-9.6,10.6-15.1
						c0.4-0.8,0.9-0.9,1.1-0.9c0.3,0,0.5,0.1,0.7,0.3c0.2,0.2,0.1,0.6-0.1,1c-2.7,5.7-6.9,10.9-11,15.9c-1.4,1.7-2.8,3.4-4.1,5.1
						C16.6,54.7,16.3,54.8,16,54.8L16,54.8z"/>
				</g>
				<g>
					<path class="st1" d="M11,48.1c-0.1,0-0.4,0-0.4-0.6c-0.1-0.8,0.5-1.9,1.2-2c8-1,16.1-2,24-2.9c0,0,0.1,0,0.1,0
						c0.1,0,0.4,0,0.5,0.6c0,0.8-0.5,1.9-1.2,2c-8,0.9-16.1,1.9-24.1,3C11.1,48.1,11.1,48.1,11,48.1z"/>
				</g>
			</g>
		</g>
		<g>
			<g>
				<g>
					<path class="st1" d="M60.4,54c-0.1,0-0.3,0-0.4-0.2c-6.4-4.8-12.4-10-18-15.7c-0.4-0.4-0.3-1.2-0.1-1.7
						c0.2-0.6,0.7-0.9,0.9-0.9c0.1,0,0.2,0.1,0.3,0.2c5.6,5.7,11.7,11,18.2,15.9c0.5,0.4,0.3,1.1,0.2,1.3C61.3,53.5,60.8,54,60.4,54
						L60.4,54z"/>
				</g>
				<g>
					<path class="st1" d="M52,58.3c-0.2,0-0.4-0.1-0.6-0.2c-0.2-0.2-0.3-0.5-0.3-0.9c0.2-7.5,0.1-15.2-0.3-23c0-0.5,0.3-1,0.4-1.2
						c0.3-0.3,0.7-0.5,1-0.5c0.1,0,0.5,0,0.5,0.8c0.5,7.8,0.6,15.8,0.3,23.9C53,57.9,52.5,58.3,52,58.3L52,58.3z"/>
				</g>
				<g>
					<path class="st1" d="M45.1,56.1c-0.3,0-0.6-0.2-0.8-0.5c-0.2-0.4-0.1-0.8,0.2-1.2c1.3-1.7,2.7-3.4,4.2-5.2
						c4-4.7,8-9.6,10.6-15.1c0.4-0.8,0.9-0.8,1.1-0.8c0.3,0,0.5,0.1,0.7,0.3c0.2,0.2,0.1,0.6-0.1,1c-2.7,5.7-6.9,10.9-11,15.9
						c-1.4,1.7-2.8,3.4-4.1,5.1C45.7,55.9,45.4,56.1,45.1,56.1C45.1,56.1,45.1,56.1,45.1,56.1z"/>
				</g>
				<g>
					<path class="st1" d="M40,49.3c-0.1,0-0.4,0-0.4-0.6c0-0.8,0.5-1.9,1.2-2c8-1,16.1-2,24-2.9c0,0,0.1,0,0.1,0
						c0.1,0,0.4,0,0.4,0.6c0.1,0.8-0.5,1.9-1.2,2c-8,0.9-16.1,1.9-24.1,3C40.1,49.3,40.1,49.3,40,49.3z"/>
				</g>
			</g>
		</g>
		<g>
			<g>
				<g>
					<path class="st1" d="M118.8,53.4c-0.1,0-0.3,0-0.4-0.2c-6.4-4.8-12.4-10-18-15.7c-0.4-0.4-0.3-1.2-0.1-1.7
						c0.2-0.6,0.7-0.9,0.9-0.9c0.1,0,0.2,0.1,0.3,0.2c5.6,5.7,11.7,11,18.1,15.9c0.5,0.4,0.3,1.1,0.2,1.3
						C119.7,52.9,119.2,53.4,118.8,53.4L118.8,53.4z"/>
				</g>
				<g>
					<path class="st1" d="M110.4,57.7c-0.2,0-0.4-0.1-0.6-0.2c-0.2-0.2-0.3-0.5-0.3-0.9c0.2-7.5,0.1-15.2-0.3-23
						c0-0.5,0.3-1,0.4-1.2c0.3-0.3,0.7-0.5,1-0.5c0.1,0,0.5,0,0.5,0.8c0.5,7.8,0.6,15.8,0.3,23.9C111.4,57.3,110.8,57.7,110.4,57.7z
						"/>
				</g>
				<g>
					<path class="st1" d="M103.4,55.5c-0.3,0-0.6-0.2-0.8-0.5c-0.2-0.4-0.1-0.8,0.2-1.2c1.3-1.7,2.7-3.4,4.2-5.2
						c3.9-4.7,8-9.6,10.6-15.1c0.4-0.8,0.9-0.8,1.1-0.8c0.3,0,0.6,0.1,0.7,0.3c0.2,0.2,0.1,0.6-0.1,1c-2.7,5.7-6.9,10.9-11,15.9
						c-1.4,1.7-2.8,3.4-4.1,5.1C104.1,55.3,103.8,55.5,103.4,55.5L103.4,55.5z"/>
				</g>
				<g>
					<path class="st1" d="M98.4,48.8c-0.1,0-0.4,0-0.4-0.6c-0.1-0.8,0.5-1.9,1.2-2c8-1,16.1-2,24-2.9c0,0,0.1,0,0.1,0
						c0.1,0,0.4,0,0.4,0.6c0.1,0.8-0.5,1.9-1.2,2c-7.9,0.9-16,1.9-24.1,3C98.5,48.8,98.5,48.8,98.4,48.8z"/>
				</g>
			</g>
		</g>
		<g>
			<g>
				<g>
					<path class="st1" d="M147.4,53.4c-0.1,0-0.3,0-0.4-0.2c-6.4-4.8-12.4-10-18-15.7c-0.4-0.4-0.3-1.2-0.1-1.7
						c0.2-0.6,0.6-0.9,0.9-0.9c0.1,0,0.2,0.1,0.4,0.2c5.6,5.7,11.7,11,18.1,15.9c0.5,0.4,0.3,1.1,0.2,1.3
						C148.3,52.9,147.9,53.4,147.4,53.4L147.4,53.4z"/>
				</g>
				<g>
					<path class="st1" d="M139,57.7c-0.2,0-0.4-0.1-0.6-0.2c-0.2-0.2-0.3-0.5-0.3-0.9c0.2-7.5,0.1-15.2-0.3-23c0-0.5,0.3-1,0.4-1.2
						c0.3-0.3,0.7-0.5,1-0.5c0.1,0,0.5,0,0.5,0.8c0.5,7.8,0.6,15.8,0.3,23.9C140,57.3,139.5,57.7,139,57.7z"/>
				</g>
				<g>
					<path class="st1" d="M132.1,55.5c-0.3,0-0.6-0.2-0.8-0.5c-0.2-0.4-0.1-0.8,0.2-1.2c1.3-1.7,2.7-3.4,4.2-5.2
						c3.9-4.7,8-9.6,10.6-15.1c0.4-0.8,0.9-0.8,1.1-0.8c0.3,0,0.5,0.1,0.7,0.3c0.2,0.2,0.1,0.6-0.1,1c-2.7,5.7-6.9,10.9-11,15.9
						c-1.4,1.7-2.8,3.4-4.1,5.1C132.7,55.3,132.4,55.5,132.1,55.5L132.1,55.5z"/>
				</g>
				<g>
					<path class="st1" d="M127.1,48.8c-0.1,0-0.4,0-0.4-0.6c-0.1-0.8,0.5-1.9,1.2-2c8-1,16.1-2,24.1-2.9c0,0,0.1,0,0.1,0
						c0.1,0,0.4,0,0.4,0.6c0.1,0.8-0.5,1.9-1.2,2c-8,0.9-16.1,1.9-24.1,3C127.2,48.8,127.1,48.8,127.1,48.8z"/>
				</g>
			</g>
		</g>
		<g>
			<g>
				<g>
					<path class="st1" d="M176.1,52.7c-0.1,0-0.3,0-0.4-0.2c-6.4-4.8-12.4-10-18-15.7c-0.4-0.4-0.3-1.2-0.1-1.7
						c0.2-0.6,0.6-0.9,0.9-0.9c0.1,0,0.2,0.1,0.4,0.2c5.6,5.7,11.7,11,18.1,15.9c0.5,0.4,0.3,1.1,0.2,1.3
						C176.9,52.2,176.5,52.7,176.1,52.7L176.1,52.7z"/>
				</g>
				<g>
					<path class="st1" d="M167.6,57c-0.2,0-0.4-0.1-0.6-0.2c-0.2-0.2-0.3-0.5-0.3-0.9c0.2-7.5,0.1-15.2-0.3-23c0-0.5,0.3-1,0.4-1.1
						c0.3-0.3,0.7-0.5,1-0.5c0.1,0,0.5,0,0.5,0.8c0.5,7.8,0.6,15.8,0.3,23.9C168.6,56.6,168.1,57,167.6,57L167.6,57z"/>
				</g>
				<g>
					<path class="st1" d="M160.7,54.7c-0.3,0-0.6-0.2-0.8-0.5c-0.2-0.4-0.1-0.8,0.2-1.2c1.3-1.7,2.7-3.4,4.2-5.2
						c3.9-4.7,8-9.6,10.6-15.1c0.4-0.8,0.9-0.9,1.1-0.9c0.3,0,0.5,0.1,0.7,0.3c0.2,0.2,0.1,0.6-0.1,1c-2.7,5.7-6.9,10.9-11,15.9
						c-1.4,1.7-2.8,3.4-4.1,5.1C161.3,54.5,161,54.7,160.7,54.7L160.7,54.7z"/>
				</g>
				<g>
					<path class="st1" d="M155.7,48c-0.1,0-0.4,0-0.4-0.6c-0.1-0.8,0.5-1.9,1.2-2c8-1,16.1-2,24.1-2.9c0,0,0.1,0,0.1,0
						c0.1,0,0.4,0,0.4,0.6c0.1,0.8-0.5,1.9-1.2,2c-8,0.9-16.1,1.9-24.1,3C155.8,48,155.7,48,155.7,48z"/>
				</g>
			</g>
		</g>
	</g>
	<g>
		<circle class="st2" cx="199.7" cy="15.5" r="11.2"/>
		<g>
			<path class="st3" d="M202.3,12.2c-0.3,0-0.6,0-0.9,0c-2.2,0.2-3.1,1.3-3.4,2.5h0.1c0.5-0.5,1.2-0.8,2.2-0.8
				c1.7,0,3.2,1.2,3.2,3.4c0,2.1-1.6,3.8-3.8,3.8c-2.8,0-4.1-2.1-4.1-4.6c0-1.9,0.7-3.6,1.8-4.6c1-0.9,2.4-1.5,4-1.5
				c0.4,0,0.7,0,1,0L202.3,12.2L202.3,12.2z M201,17.4c0-1-0.5-1.8-1.6-1.8c-0.7,0-1.2,0.4-1.4,0.9c-0.1,0.1-0.1,0.3-0.1,0.6
				c0.1,1.1,0.6,2.1,1.7,2.1C200.4,19.2,201,18.4,201,17.4z"/>
		</g>
		<g>
			<path class="st4" d="M98.3,18.4c-0.2,0-0.6,0-0.8,0v1.2c0,0.4,0.1,0.6,0.4,0.6v0.2h-2.6v-0.2c0.3,0,0.4-0.1,0.4-0.6v-5.6
				c0-0.3-0.2-0.4-0.4-0.4v-0.2c0.5,0,1.3-0.1,2.7-0.1c1.9,0,3.4,0.6,3.4,2.6C101.4,17.7,99.8,18.4,98.3,18.4z M98.2,14.6
				c-0.2,0-0.5,0-0.6,0V17c0.2,0,0.4,0,0.7,0c0.8,0,1.3-0.4,1.3-1.2C99.5,14.9,98.9,14.6,98.2,14.6z"/>
			<path class="st4" d="M105.8,20.3c-0.3-0.5-0.6-1.4-0.7-2.1c-0.1,0-0.3,0-0.5,0c-0.2,0-0.3,0-0.5,0v1.4c0,0.4,0.1,0.5,0.4,0.5v0.2
				h-2.6v-0.2c0.2,0,0.4-0.1,0.4-0.5V14c0-0.3-0.1-0.5-0.4-0.5v-0.2c0.5,0,1.5-0.1,2.5-0.1c2.1,0,3.7,0.4,3.7,2.4
				c0,1-0.7,1.8-1.4,2.1c0.2,0.6,0.6,1.5,1,2.1c0.1,0.2,0.2,0.3,0.5,0.3v0.2C108.1,20.3,105.8,20.3,105.8,20.3z M104.7,14.6
				c-0.2,0-0.4,0-0.5,0v2.1c0.2,0,0.4,0,0.6,0c1.1,0,1.6-0.3,1.6-1.1C106.3,15,105.8,14.6,104.7,14.6z"/>
			<path class="st4" d="M112,20.5c-2.1,0-3.4-1.6-3.4-3.8c0-2.4,1.5-3.7,3.4-3.7c1.9,0,3.4,1.4,3.4,3.7
				C115.4,18.9,114.2,20.5,112,20.5z M112,14.6c-0.8,0-1.5,0.7-1.5,2.2c0,1.5,0.6,2.3,1.5,2.3c0.9,0,1.5-0.8,1.5-2.3
				C113.6,15.2,112.8,14.6,112,14.6z"/>
			<path class="st4" d="M122.1,17.5v1.9c0,0.1,0.1,0.3,0.1,0.4c-0.5,0.3-1.3,0.7-2.7,0.7c-2.1,0-3.5-1.6-3.5-3.8
				c0-2.3,1.9-3.6,3.3-3.6c0.7,0,1.2,0.1,1.4,0.1c0.2,0,0.4-0.1,0.4-0.1l0.6,2.1l-0.3,0.1c-0.1-0.1-0.2-0.4-0.4-0.5
				c-0.2-0.2-0.5-0.3-1.1-0.3c-1,0-2,0.7-2,2.1c0,1.4,0.7,2.3,1.7,2.3c0.3,0,0.6-0.1,0.7-0.1v-1.4c0-0.3-0.2-0.4-0.4-0.4v-0.2h2.5
				v0.2C122.2,17.1,122.1,17.2,122.1,17.5z"/>
			<path class="st4" d="M126.8,20.3c-0.3-0.5-0.6-1.4-0.7-2.1c-0.1,0-0.3,0-0.5,0c-0.2,0-0.3,0-0.5,0v1.4c0,0.4,0.1,0.5,0.4,0.5v0.2
				H123v-0.2c0.2,0,0.4-0.1,0.4-0.5V14c0-0.3-0.1-0.5-0.4-0.5v-0.2c0.5,0,1.5-0.1,2.5-0.1c2.1,0,3.7,0.4,3.7,2.4
				c0,1-0.7,1.8-1.4,2.1c0.2,0.6,0.6,1.5,1,2.1c0.1,0.2,0.2,0.3,0.5,0.3v0.2C129.2,20.3,126.8,20.3,126.8,20.3z M125.7,14.6
				c-0.2,0-0.4,0-0.5,0v2.1c0.2,0,0.4,0,0.6,0c1.1,0,1.6-0.3,1.6-1.1C127.3,15,126.8,14.6,125.7,14.6z"/>
			<path class="st4" d="M134.7,20.4c-0.2-0.1-0.5-0.1-0.7-0.1h-4.3v-0.2c0.3,0,0.4-0.2,0.4-0.5V14c0-0.3-0.2-0.5-0.4-0.5v-0.2h4.4
				c0.1,0,0.5-0.1,0.6-0.1L135,15l-0.2,0.1c-0.2-0.3-0.3-0.4-0.6-0.4h-2.3v1.2h2.1c0.2,0,0.3-0.1,0.3-0.3h0.2v2h-0.2
				c0-0.2-0.1-0.3-0.3-0.3h-2.1v1.5h2.3c0.4,0,0.5-0.1,0.6-0.4l0.2,0.1L134.7,20.4z"/>
			<path class="st4" d="M138.2,20.5c-0.6,0-1.5-0.2-1.8-0.2c-0.2,0-0.3,0-0.4,0.1l-0.4-2.3l0.4-0.1c0.1,0.2,0.1,0.4,0.3,0.6
				c0.3,0.3,0.7,0.5,1.6,0.5c0.9,0,1.2-0.3,1.2-0.6c0-0.3-0.2-0.5-1.6-1.1c-1.2-0.5-1.8-1.1-1.8-2c0-1.3,1-2.2,2.8-2.2
				c0.5,0,1.1,0.2,1.4,0.2c0.2,0,0.3,0,0.4-0.1l0.2,2l-0.3,0.1c-0.1-0.2-0.2-0.4-0.4-0.5c-0.2-0.2-0.5-0.3-1.2-0.3
				c-0.8,0-1,0.3-1,0.6s0.3,0.5,1.4,1c1,0.4,1.8,1,1.8,2.2C140.9,19.6,140.1,20.5,138.2,20.5z"/>
			<path class="st4" d="M144,20.5c-0.6,0-1.5-0.2-1.8-0.2c-0.2,0-0.3,0-0.4,0.1l-0.4-2.3l0.4-0.1c0.1,0.2,0.1,0.4,0.3,0.6
				c0.3,0.3,0.7,0.5,1.6,0.5c0.9,0,1.2-0.3,1.2-0.6c0-0.3-0.2-0.5-1.6-1.1c-1.2-0.5-1.8-1.1-1.8-2c0-1.3,1-2.2,2.8-2.2
				c0.5,0,1.1,0.2,1.4,0.2c0.2,0,0.3,0,0.4-0.1l0.2,2l-0.3,0.1c-0.1-0.2-0.2-0.4-0.4-0.5c-0.2-0.2-0.5-0.3-1.2-0.3
				c-0.8,0-1,0.3-1,0.6s0.3,0.5,1.4,1c1,0.4,1.8,1,1.8,2.2C146.7,19.6,145.9,20.5,144,20.5z"/>
			<path class="st4" d="M151.9,20.5c-0.6,0-1.5-0.2-1.8-0.2c-0.2,0-0.3,0-0.4,0.1l-0.4-2.3l0.4-0.1c0.1,0.2,0.1,0.4,0.3,0.6
				c0.3,0.3,0.7,0.5,1.6,0.5c0.9,0,1.2-0.3,1.2-0.6c0-0.3-0.2-0.5-1.6-1.1c-1.2-0.5-1.8-1.1-1.8-2c0-1.3,1-2.2,2.8-2.2
				c0.5,0,1.1,0.2,1.4,0.2c0.2,0,0.3,0,0.4-0.1l0.2,2l-0.3,0.1c-0.1-0.2-0.2-0.4-0.4-0.5c-0.2-0.2-0.5-0.3-1.2-0.3
				c-0.8,0-1,0.3-1,0.6s0.3,0.5,1.4,1c1,0.4,1.8,1,1.8,2.2C154.6,19.6,153.8,20.5,151.9,20.5z"/>
			<path class="st4" d="M160.6,20.3c0,0-0.1,0-0.4,0c-0.1,0-0.9,0.1-1.6,0.1c-1.9,0-3.4-1.3-3.4-3.6c0-2.4,1.8-3.6,3.4-3.6
				c0.6,0,1.4,0.1,1.6,0.1c0.2,0,0.4-0.1,0.4-0.1l0.4,2.1l-0.3,0.1c-0.2-0.6-1.1-0.8-1.6-0.8c-1,0-2,0.6-2,2.2c0,1.6,1,2.1,2,2.1
				c0.9,0,1.4-0.2,1.6-0.9l0.3,0.1L160.6,20.3z"/>
			<path class="st4" d="M164.9,20.5c-2.1,0-3.4-1.6-3.4-3.8c0-2.4,1.5-3.7,3.4-3.7c1.9,0,3.4,1.4,3.4,3.7
				C168.3,18.9,167.1,20.5,164.9,20.5z M164.9,14.6c-0.8,0-1.5,0.7-1.5,2.2c0,1.5,0.6,2.3,1.5,2.3c0.9,0,1.5-0.8,1.5-2.3
				C166.4,15.2,165.7,14.6,164.9,14.6z"/>
			<path class="st4" d="M172.8,20.3c-0.3-0.5-0.6-1.4-0.7-2.1c-0.1,0-0.3,0-0.5,0c-0.2,0-0.4,0-0.5,0v1.4c0,0.4,0.1,0.5,0.4,0.5v0.2
				h-2.6v-0.2c0.2,0,0.4-0.1,0.4-0.5V14c0-0.3-0.1-0.5-0.4-0.5v-0.2c0.5,0,1.5-0.1,2.5-0.1c2.1,0,3.7,0.4,3.7,2.4
				c0,1-0.7,1.8-1.4,2.1c0.2,0.6,0.6,1.5,1,2.1c0.1,0.2,0.2,0.3,0.5,0.3v0.2C175.1,20.3,172.8,20.3,172.8,20.3z M171.6,14.6
				c-0.2,0-0.4,0-0.5,0v2.1c0.2,0,0.4,0,0.6,0c1.1,0,1.6-0.3,1.6-1.1C173.2,15,172.7,14.6,171.6,14.6z"/>
			<path class="st4" d="M180.6,20.4c-0.2-0.1-0.5-0.1-0.7-0.1h-4.3v-0.2c0.3,0,0.4-0.2,0.4-0.5V14c0-0.3-0.2-0.5-0.4-0.5v-0.2h4.4
				c0.1,0,0.5-0.1,0.6-0.1L181,15l-0.2,0.1c-0.2-0.3-0.3-0.4-0.6-0.4h-2.3v1.2h2.1c0.2,0,0.3-0.1,0.3-0.3h0.2v2h-0.2
				c0-0.2-0.1-0.3-0.3-0.3h-2.1v1.5h2.3c0.4,0,0.5-0.1,0.6-0.4l0.2,0.1L180.6,20.4z"/>
		</g>
	</g>
	<g>
		<g>
			<g>
				<path class="st3" d="M191.2,97.5l-30.1-32.4c-0.6-0.7-1.6-1.1-2.5-1.1l0,0c-0.9,0-1.9,0.4-2.5,1.1l-30.1,32.4
					c-1.2,1.3-1.2,3.3,0,4.7l30.1,31.8c0.6,0.7,1.5,1.1,2.5,1.1s1.8-0.4,2.5-1.1l30.1-31.8C192.4,100.9,192.4,98.8,191.2,97.5z"/>
				<path class="st5" d="M161.2,100.4l12.2-5.3c0.6-0.2,0.9-0.7,1.1-1.2c0.1-0.5,0.1-1.1-0.3-1.6l-14.5-21.9
					c-0.3-0.5-0.7-0.8-1.1-0.8s-0.8,0.3-1.1,0.8l-14.5,21.9c-0.3,0.5-0.4,1.1-0.3,1.6c0.1,0.5,0.6,0.9,1.1,1.2l12.2,5.3
					c0.6,0.3,1.6,0.4,2.5,0.4C159.6,100.8,160.6,100.7,161.2,100.4z"/>
				<path class="st6" d="M187.3,100.9c-0.1-0.4-0.4-0.8-1-1l-6.6-2.9c-0.7-0.3-1.6-0.4-2.6-0.4c-0.9,0-1.9,0.2-2.5,0.4l-12.2,5.3
					c-1.3,0.6-2.4,2.2-2.4,3.7v23.3c0,0.6,0.1,0.9,0.2,0.9l0,0c0.1,0,0.4-0.1,0.7-0.5l25.9-27.4
					C187.2,101.8,187.4,101.4,187.3,100.9z"/>
				<path class="st7" d="M180.3,95.1l6.4,2.8L164.5,74l11.6,17.6C176.9,92.9,178.9,94.5,180.3,95.1z"/>
				<path class="st6" d="M154.9,102.3L142.6,97c-0.6-0.3-1.6-0.4-2.5-0.4c-1,0-1.9,0.2-2.6,0.4l-6.6,2.9c-0.5,0.2-0.9,0.6-1,1
					s0.1,0.9,0.5,1.3l25.9,27.4c0.4,0.4,0.6,0.5,0.7,0.5h0c0,0,0.2-0.2,0.2-0.9v-23.3C157.3,104.5,156.2,102.9,154.9,102.3z"/>
				<path class="st7" d="M137,95.1c1.4-0.6,3.3-2.2,4.2-3.5L152.9,74l-22.2,23.9L137,95.1z"/>
				<g>
					<g>
						<path class="st3" d="M158.9,95.3v-3.7h-6.9v-2.4l5.9-9.5h4.5v9.2h1.9v2.7h-1.9v3.7L158.9,95.3L158.9,95.3z M158.9,88.8v-3.5
							c0-0.9,0.1-1.9,0.1-2.9h-0.1c-0.5,1-0.9,1.9-1.4,2.9l-2.1,3.4v0.1C155.3,88.9,158.9,88.9,158.9,88.8z"/>
					</g>
					<g>
						<path class="st3" d="M158.9,95.3v-3.7h-6.9v-2.4l5.9-9.5h4.5v9.2h1.9v2.7h-1.9v3.7L158.9,95.3L158.9,95.3z M158.9,88.8v-3.5
							c0-0.9,0.1-1.9,0.1-2.9h-0.1c-0.5,1-0.9,1.9-1.4,2.9l-2.1,3.4v0.1C155.3,88.9,158.9,88.9,158.9,88.8z"/>
					</g>
				</g>
			</g>
			<g>
				<path class="st3" d="M269.9,97.5l-30.1-32.4c-0.6-0.7-1.6-1.1-2.5-1.1l0,0c-0.9,0-1.9,0.4-2.5,1.1l-30.1,32.4
					c-1.2,1.3-1.2,3.3,0,4.7l30.1,31.8c0.6,0.7,1.5,1.1,2.5,1.1s1.8-0.4,2.5-1.1l30.1-31.8C271.1,100.9,271.1,98.8,269.9,97.5z"/>
				<path class="st5" d="M239.9,100.4l12.2-5.3c0.6-0.2,0.9-0.7,1.1-1.2c0.1-0.5,0.1-1.1-0.3-1.6l-14.5-21.9
					c-0.3-0.5-0.7-0.8-1.1-0.8s-0.8,0.3-1.1,0.8l-14.5,21.9c-0.3,0.5-0.4,1.1-0.3,1.6c0.1,0.5,0.6,0.9,1.1,1.2l12.2,5.3
					c0.6,0.3,1.6,0.4,2.5,0.4S239.2,100.7,239.9,100.4z"/>
				<path class="st6" d="M266,100.9c-0.1-0.4-0.4-0.8-1-1l-6.6-2.9c-0.7-0.3-1.6-0.4-2.6-0.4c-0.9,0-1.9,0.2-2.5,0.4l-12.2,5.3
					c-1.3,0.6-2.4,2.2-2.4,3.7v23.3c0,0.6,0.1,0.9,0.2,0.9l0,0c0.1,0,0.4-0.1,0.7-0.5l25.9-27.4C265.9,101.8,266.1,101.4,266,100.9z
					"/>
				<path class="st7" d="M259,95.1l6.4,2.8L243.2,74l11.6,17.6C255.6,92.9,257.6,94.5,259,95.1z"/>
				<path class="st6" d="M233.6,102.3L221.3,97c-0.6-0.3-1.6-0.4-2.5-0.4c-1,0-1.9,0.2-2.6,0.4l-6.6,2.9c-0.5,0.2-0.9,0.6-1,1
					s0.1,0.9,0.5,1.3l25.9,27.4c0.4,0.4,0.6,0.5,0.7,0.5h0c0,0,0.2-0.2,0.2-0.9v-23.3C236,104.5,234.9,102.9,233.6,102.3z"/>
				<path class="st7" d="M215.7,95.1c1.4-0.6,3.3-2.2,4.2-3.5L231.6,74l-22.2,23.9L215.7,95.1z"/>
				<g>
					<g>
						<path class="st3" d="M241.8,83.1c-0.4,0-0.8,0-1.4,0.1c-3.2,0.3-4.7,1.9-5.1,3.7h0.1c0.8-0.8,1.9-1.2,3.3-1.2
							c2.6,0,4.8,1.8,4.8,5.1c0,3.1-2.4,5.6-5.8,5.6c-4.1,0-6.2-3.1-6.2-6.8c0-2.9,1.1-5.4,2.8-6.9c1.6-1.4,3.6-2.2,6-2.3
							c0.7-0.1,1.1-0.1,1.5,0L241.8,83.1L241.8,83.1z M239.8,90.9c0-1.4-0.8-2.7-2.3-2.7c-1,0-1.8,0.6-2.2,1.4
							c-0.1,0.2-0.1,0.5-0.1,0.9c0.1,1.7,0.9,3.1,2.5,3.1C239,93.6,239.8,92.5,239.8,90.9z"/>
					</g>
					<g>
						<path class="st3" d="M241.8,83.1c-0.4,0-0.8,0-1.4,0.1c-3.2,0.3-4.7,1.9-5.1,3.7h0.1c0.8-0.8,1.9-1.2,3.3-1.2
							c2.6,0,4.8,1.8,4.8,5.1c0,3.1-2.4,5.6-5.8,5.6c-4.1,0-6.2-3.1-6.2-6.8c0-2.9,1.1-5.4,2.8-6.9c1.6-1.4,3.6-2.2,6-2.3
							c0.7-0.1,1.1-0.1,1.5,0L241.8,83.1L241.8,83.1z M239.8,90.9c0-1.4-0.8-2.7-2.3-2.7c-1,0-1.8,0.6-2.2,1.4
							c-0.1,0.2-0.1,0.5-0.1,0.9c0.1,1.7,0.9,3.1,2.5,3.1C239,93.6,239.8,92.5,239.8,90.9z"/>
					</g>
				</g>
			</g>
			<circle class="st8" cx="178.3" cy="118.3" r="11.9"/>
			<circle class="st8" cx="259" cy="118.6" r="11.9"/>
			<polygon class="st3" points="265.7,123 263.6,125.2 259,121.1 254.4,125.2 252.3,123 256.7,119 252.3,115.1 254.3,112.7 259,117 
				263.7,112.7 265.7,115.1 261.3,119 			"/>
			<polygon class="st3" points="176.9,125.6 170.7,120.9 172.3,118.8 176.4,122 183.8,112.3 185.9,113.9 			"/>
		</g>
		<g>
			<g>
				<path class="st4" d="M40.8,102.8c0,0-0.2-0.1-0.4-0.1c-0.1,0-0.9,0.1-1.6,0.1c-1.9,0-3.5-1.3-3.5-3.6c0-2.4,1.8-3.6,3.5-3.6
					c0.6,0,1.4,0.1,1.6,0.1c0.2,0,0.4-0.1,0.4-0.1l0.4,2.1l-0.3,0.1c-0.2-0.6-1.1-0.8-1.6-0.8c-1,0-2,0.6-2,2.2c0,1.6,1,2.1,2,2.1
					c0.8,0,1.4-0.2,1.6-0.9l0.3,0.1L40.8,102.8z"/>
				<path class="st4" d="M46,102.8v-0.2c0.3,0,0.4-0.2,0.4-0.6v-2.1H44v2.1c0,0.4,0.1,0.6,0.4,0.6v0.2h-2.6v-0.2
					c0.3,0,0.4-0.2,0.4-0.6v-5.5c0-0.3-0.2-0.5-0.4-0.5v-0.2h2.6V96c-0.3,0-0.4,0.2-0.4,0.6v1.8h2.4v-1.9c0-0.3-0.2-0.5-0.4-0.5
					v-0.2h2.6V96c-0.3,0-0.4,0.2-0.4,0.6v5.4c0,0.4,0.1,0.6,0.4,0.6v0.2C48.5,102.8,46,102.8,46,102.8z"/>
				<path class="st4" d="M53.2,102.8v-0.2c0.3,0,0.4-0.1,0.4-0.3c0-0.1,0-0.2-0.1-0.2l0-0.2c-0.3,0.1-0.7,0.2-1.1,0.2
					c-0.4,0-0.8-0.1-1.1-0.2l-0.1,0.2c0,0.1-0.1,0.2-0.1,0.2c0,0.2,0.1,0.3,0.3,0.3v0.2h-2.6v-0.2c0.2,0,0.3,0,0.5-0.4l1.8-5.5
					c0-0.1,0.1-0.3,0.1-0.4c0-0.2-0.1-0.2-0.2-0.2v-0.2h2.7V96c-0.2,0-0.2,0.1-0.2,0.3c0,0.1,0,0.2,0.1,0.5l1.8,5.3
					c0.1,0.4,0.2,0.5,0.5,0.5v0.2C55.9,102.8,53.2,102.8,53.2,102.8z M52.4,97.8L52.4,97.8l-0.7,2.7c0.2,0.1,0.5,0.1,0.8,0.1
					c0.2,0,0.5,0,0.7-0.1L52.4,97.8z"/>
				<path class="st4" d="M61.3,102.9c-0.2-0.1-0.4-0.1-0.6-0.1h-4.4v-0.2c0.3,0,0.4-0.2,0.4-0.6v-5.5c0-0.3-0.2-0.5-0.4-0.5v-0.2
					h2.6V96c-0.2,0-0.4,0.1-0.4,0.5v4.8h2.4c0.3,0,0.5-0.2,0.6-0.4l0.2,0.1L61.3,102.9z"/>
				<path class="st4" d="M67.1,102.9c-0.2-0.1-0.4-0.1-0.6-0.1h-4.4v-0.2c0.3,0,0.4-0.2,0.4-0.6v-5.5c0-0.3-0.2-0.5-0.4-0.5v-0.2
					h2.6V96c-0.2,0-0.4,0.1-0.4,0.5v4.8h2.4c0.3,0,0.5-0.2,0.6-0.4l0.2,0.1L67.1,102.9z"/>
				<path class="st4" d="M73,102.9c-0.2-0.1-0.5-0.1-0.7-0.1H68v-0.2c0.3,0,0.4-0.2,0.4-0.5v-5.5c0-0.3-0.2-0.5-0.4-0.5v-0.2h4.4
					c0.2,0,0.5-0.1,0.6-0.1l0.3,1.8l-0.2,0.1c-0.2-0.3-0.3-0.4-0.6-0.4h-2.3v1.2h2.1c0.2,0,0.3-0.1,0.3-0.3h0.2v2h-0.2
					c0-0.2-0.1-0.3-0.3-0.3h-2.1v1.5h2.3c0.4,0,0.5-0.1,0.7-0.4l0.2,0.1L73,102.9z"/>
				<path class="st4" d="M80.2,96.6v6.2h-1.6c0-0.2-0.1-0.4-0.2-0.6L76,98.3h0v3.7c0,0.4,0.1,0.6,0.4,0.6v0.2h-2.4v-0.2
					c0.3,0,0.4-0.2,0.4-0.6v-5.5c0-0.3-0.2-0.5-0.4-0.5v-0.2h2.6c0,0.2,0.1,0.3,0.3,0.6l1.8,2.9h0v-2.8c0-0.4-0.1-0.5-0.4-0.5v-0.2
					h2.4V96C80.3,96,80.2,96.1,80.2,96.6z"/>
				<path class="st4" d="M87.2,100v1.9c0,0.2,0.1,0.3,0.1,0.4c-0.5,0.3-1.3,0.7-2.7,0.7c-2.1,0-3.5-1.6-3.5-3.8
					c0-2.3,1.9-3.6,3.3-3.6c0.7,0,1.2,0.1,1.4,0.1c0.2,0,0.4-0.1,0.4-0.1l0.6,2.1l-0.3,0.1c-0.1-0.2-0.2-0.4-0.4-0.5
					c-0.2-0.2-0.5-0.3-1.1-0.3c-1,0-2,0.7-2,2.1c0,1.4,0.7,2.3,1.7,2.3c0.3,0,0.6-0.1,0.7-0.1V100c0-0.3-0.2-0.4-0.4-0.4v-0.2h2.5
					v0.2C87.4,99.6,87.2,99.7,87.2,100z"/>
				<path class="st4" d="M93.1,102.9c-0.2-0.1-0.5-0.1-0.7-0.1h-4.3v-0.2c0.3,0,0.4-0.2,0.4-0.5v-5.5c0-0.3-0.2-0.5-0.4-0.5v-0.2
					h4.4c0.2,0,0.5-0.1,0.6-0.1l0.3,1.8l-0.2,0.1c-0.2-0.3-0.3-0.4-0.6-0.4h-2.3v1.2h2.1c0.2,0,0.3-0.1,0.3-0.3H93v2h-0.2
					c0-0.2-0.1-0.3-0.3-0.3h-2.1v1.5h2.3c0.4,0,0.5-0.1,0.7-0.4l0.2,0.1L93.1,102.9z"/>
				<path class="st4" d="M98.5,102.9c-0.9,0-1.8,0-2.3-0.1v-0.2c0.3,0,0.4-0.2,0.4-0.6v-5.5c0-0.3-0.2-0.5-0.4-0.5v-0.2
					c0.5-0.1,1.4-0.1,2.4-0.1c2.7,0,4,1.4,4,3.5C102.6,101.4,101.4,102.9,98.5,102.9z M99,97.1c-0.2,0-0.4,0-0.6,0v4.2
					c0.1,0,0.4,0,0.5,0c1.1,0,1.8-0.8,1.8-2.2C100.7,97.8,99.9,97.1,99,97.1z"/>
				<path class="st4" d="M103.2,102.8v-0.2c0.3,0,0.4-0.2,0.4-0.6v-5.5c0-0.3-0.2-0.5-0.4-0.5v-0.2h2.6V96c-0.2,0-0.4,0.1-0.4,0.6
					v5.4c0,0.4,0.1,0.6,0.4,0.6v0.2H103.2z"/>
				<path class="st4" d="M111.8,102.8c0,0-0.2-0.1-0.4-0.1c-0.1,0-0.9,0.1-1.6,0.1c-1.9,0-3.4-1.3-3.4-3.6c0-2.4,1.8-3.6,3.4-3.6
					c0.6,0,1.4,0.1,1.6,0.1c0.2,0,0.4-0.1,0.4-0.1l0.4,2.1l-0.3,0.1c-0.2-0.6-1.1-0.8-1.6-0.8c-1,0-2,0.6-2,2.2c0,1.6,1,2.1,2,2.1
					c0.8,0,1.4-0.2,1.6-0.9l0.3,0.1L111.8,102.8z"/>
				<path class="st4" d="M117.8,102.9c-0.2-0.1-0.5-0.1-0.7-0.1h-4.3v-0.2c0.3,0,0.4-0.2,0.4-0.5v-5.5c0-0.3-0.2-0.5-0.4-0.5v-0.2
					h4.4c0.2,0,0.5-0.1,0.6-0.1l0.3,1.8l-0.2,0.1c-0.2-0.3-0.3-0.4-0.6-0.4H115v1.2h2.1c0.2,0,0.3-0.1,0.3-0.3h0.2v2h-0.2
					c0-0.2-0.1-0.3-0.3-0.3H115v1.5h2.3c0.4,0,0.5-0.1,0.7-0.4l0.2,0.1L117.8,102.9z"/>
			</g>
		</g>
	</g>
</g>
<g id="Layer_3">
</g>
</svg>
